<mxfile host="app.diagrams.net" modified="2021-04-14T23:27:57.863Z" agent="5.0 (Macintosh)" etag="vs7kvFv-N7N9zyCcK64G" version="14.6.0" type="github">
  <diagram id="Ulr1eWsYCb4U-b4iso83" name="Page-1">
    <mxGraphModel dx="2017" dy="780" grid="1" gridSize="10" guides="1" tooltips="1" connect="1" arrows="1" fold="1" page="1" pageScale="1" pageWidth="850" pageHeight="1100" math="0" shadow="0">
      <root>
        <mxCell id="0" />
        <mxCell id="1" parent="0" />
        <mxCell id="AGDrLH_khp4KD6yV0Qok-1" value="Code Repo" style="whiteSpace=wrap;html=1;aspect=fixed;fillColor=#e1d5e7;strokeColor=#9673a6;" vertex="1" parent="1">
          <mxGeometry x="30" y="720" width="80" height="80" as="geometry" />
        </mxCell>
        <mxCell id="AGDrLH_khp4KD6yV0Qok-2" value="&lt;div&gt;Dispatcher&lt;/div&gt;" style="rounded=1;whiteSpace=wrap;html=1;fillColor=#d5e8d4;strokeColor=#82b366;" vertex="1" parent="1">
          <mxGeometry x="365" y="140" width="120" height="60" as="geometry" />
        </mxCell>
        <mxCell id="AGDrLH_khp4KD6yV0Qok-19" style="edgeStyle=orthogonalEdgeStyle;rounded=0;orthogonalLoop=1;jettySize=auto;html=1;" edge="1" parent="1" source="AGDrLH_khp4KD6yV0Qok-8" target="AGDrLH_khp4KD6yV0Qok-2">
          <mxGeometry relative="1" as="geometry" />
        </mxCell>
        <mxCell id="AGDrLH_khp4KD6yV0Qok-8" value="&lt;div&gt;F5 Appliance&lt;br&gt;&lt;/div&gt;" style="rounded=1;whiteSpace=wrap;html=1;align=center;fillColor=#dae8fc;strokeColor=#6c8ebf;" vertex="1" parent="1">
          <mxGeometry x="365" y="40" width="120" height="60" as="geometry" />
        </mxCell>
        <mxCell id="AGDrLH_khp4KD6yV0Qok-9" value="" style="group;fillColor=#d5e8d4;strokeColor=#82b366;" vertex="1" connectable="0" parent="1">
          <mxGeometry x="285" y="240" width="280" height="210" as="geometry" />
        </mxCell>
        <mxCell id="AGDrLH_khp4KD6yV0Qok-4" value="Publish Instance" style="rounded=1;whiteSpace=wrap;html=1;verticalAlign=top;" vertex="1" parent="AGDrLH_khp4KD6yV0Qok-9">
          <mxGeometry width="280" height="210" as="geometry" />
        </mxCell>
        <mxCell id="AGDrLH_khp4KD6yV0Qok-5" value="Site: " style="rounded=0;whiteSpace=wrap;html=1;align=left;" vertex="1" parent="AGDrLH_khp4KD6yV0Qok-9">
          <mxGeometry x="20" y="40" width="240" height="40" as="geometry" />
        </mxCell>
        <mxCell id="AGDrLH_khp4KD6yV0Qok-6" value="Site: " style="rounded=0;whiteSpace=wrap;html=1;align=left;" vertex="1" parent="AGDrLH_khp4KD6yV0Qok-9">
          <mxGeometry x="20" y="90" width="240" height="40" as="geometry" />
        </mxCell>
        <mxCell id="AGDrLH_khp4KD6yV0Qok-7" value="Site: " style="rounded=0;whiteSpace=wrap;html=1;align=left;" vertex="1" parent="AGDrLH_khp4KD6yV0Qok-9">
          <mxGeometry x="20" y="140" width="240" height="40" as="geometry" />
        </mxCell>
        <mxCell id="AGDrLH_khp4KD6yV0Qok-10" value="" style="group;fillColor=#d5e8d4;strokeColor=#82b366;" vertex="1" connectable="0" parent="1">
          <mxGeometry x="285" y="490" width="280" height="210" as="geometry" />
        </mxCell>
        <mxCell id="AGDrLH_khp4KD6yV0Qok-11" value="Author Instance" style="rounded=1;whiteSpace=wrap;html=1;verticalAlign=top;" vertex="1" parent="AGDrLH_khp4KD6yV0Qok-10">
          <mxGeometry width="280" height="210" as="geometry" />
        </mxCell>
        <mxCell id="AGDrLH_khp4KD6yV0Qok-12" value="Site: " style="rounded=0;whiteSpace=wrap;html=1;align=left;" vertex="1" parent="AGDrLH_khp4KD6yV0Qok-10">
          <mxGeometry x="20" y="40" width="240" height="40" as="geometry" />
        </mxCell>
        <mxCell id="AGDrLH_khp4KD6yV0Qok-13" value="Site: " style="rounded=0;whiteSpace=wrap;html=1;align=left;" vertex="1" parent="AGDrLH_khp4KD6yV0Qok-10">
          <mxGeometry x="20" y="90" width="240" height="40" as="geometry" />
        </mxCell>
        <mxCell id="AGDrLH_khp4KD6yV0Qok-14" value="Site: " style="rounded=0;whiteSpace=wrap;html=1;align=left;" vertex="1" parent="AGDrLH_khp4KD6yV0Qok-10">
          <mxGeometry x="20" y="140" width="240" height="40" as="geometry" />
        </mxCell>
        <mxCell id="AGDrLH_khp4KD6yV0Qok-16" style="edgeStyle=orthogonalEdgeStyle;rounded=0;orthogonalLoop=1;jettySize=auto;html=1;entryX=0.5;entryY=1;entryDx=0;entryDy=0;" edge="1" parent="1" source="AGDrLH_khp4KD6yV0Qok-15" target="AGDrLH_khp4KD6yV0Qok-11">
          <mxGeometry relative="1" as="geometry" />
        </mxCell>
        <mxCell id="AGDrLH_khp4KD6yV0Qok-15" value="Author" style="shape=actor;whiteSpace=wrap;html=1;align=center;verticalAlign=bottom;fontStyle=1" vertex="1" parent="1">
          <mxGeometry x="405" y="760" width="40" height="60" as="geometry" />
        </mxCell>
        <mxCell id="AGDrLH_khp4KD6yV0Qok-17" style="edgeStyle=orthogonalEdgeStyle;rounded=0;orthogonalLoop=1;jettySize=auto;html=1;entryX=0.5;entryY=1;entryDx=0;entryDy=0;" edge="1" parent="1" source="AGDrLH_khp4KD6yV0Qok-11" target="AGDrLH_khp4KD6yV0Qok-4">
          <mxGeometry relative="1" as="geometry" />
        </mxCell>
        <mxCell id="AGDrLH_khp4KD6yV0Qok-18" style="edgeStyle=orthogonalEdgeStyle;rounded=0;orthogonalLoop=1;jettySize=auto;html=1;" edge="1" parent="1" source="AGDrLH_khp4KD6yV0Qok-4" target="AGDrLH_khp4KD6yV0Qok-2">
          <mxGeometry relative="1" as="geometry" />
        </mxCell>
        <mxCell id="AGDrLH_khp4KD6yV0Qok-20" value="Database" style="shape=cylinder3;whiteSpace=wrap;html=1;boundedLbl=1;backgroundOutline=1;size=15;align=center;" vertex="1" parent="1">
          <mxGeometry x="730" y="470" width="60" height="80" as="geometry" />
        </mxCell>
        <mxCell id="AGDrLH_khp4KD6yV0Qok-21" value="Database" style="shape=cylinder3;whiteSpace=wrap;html=1;boundedLbl=1;backgroundOutline=1;size=15;align=center;" vertex="1" parent="1">
          <mxGeometry x="730" y="350" width="60" height="80" as="geometry" />
        </mxCell>
        <mxCell id="AGDrLH_khp4KD6yV0Qok-22" value="&amp;nbsp;Database" style="shape=cylinder3;whiteSpace=wrap;html=1;boundedLbl=1;backgroundOutline=1;size=15;align=center;" vertex="1" parent="1">
          <mxGeometry x="730" y="230" width="60" height="80" as="geometry" />
        </mxCell>
        <mxCell id="AGDrLH_khp4KD6yV0Qok-23" value="SOA" style="rounded=0;whiteSpace=wrap;html=1;align=center;" vertex="1" parent="1">
          <mxGeometry x="10" y="400" width="120" height="60" as="geometry" />
        </mxCell>
        <mxCell id="AGDrLH_khp4KD6yV0Qok-24" value="SOA" style="rounded=0;whiteSpace=wrap;html=1;align=center;" vertex="1" parent="1">
          <mxGeometry x="10" y="470" width="120" height="60" as="geometry" />
        </mxCell>
        <mxCell id="AGDrLH_khp4KD6yV0Qok-25" value="SOA" style="rounded=0;whiteSpace=wrap;html=1;align=center;" vertex="1" parent="1">
          <mxGeometry x="10" y="540" width="120" height="60" as="geometry" />
        </mxCell>
      </root>
    </mxGraphModel>
  </diagram>
</mxfile>
